<svg width="43" height="54" viewBox="0 0 43 54" fill="none" xmlns="http://www.w3.org/2000/svg">
<path fill-rule="evenodd" clip-rule="evenodd" d="M42.1191 23.2572V27.7122H36.1791C34.9488 27.7122 33.9516 28.7095 33.9516 29.9397C33.9516 31.17 34.9488 32.1672 36.1791 32.1672H42.1191V35.5324C42.1191 37.7919 41.1713 39.9478 39.5065 41.4755C34.9516 45.6549 29.3157 47.9829 23.5566 48.4594V51.4722C23.5566 52.7025 22.5593 53.6997 21.3291 53.6997C20.0988 53.6997 19.1016 52.7025 19.1016 51.4722V48.4594C13.3424 47.9829 7.70648 45.6549 3.15165 41.4755C1.48681 39.9478 0.539062 37.7919 0.539062 35.5324V12.1197C0.539062 6.51946 0.539062 3.71932 2.27885 1.97953C4.01863 0.239746 6.81878 0.239746 12.4191 0.239746H30.2391C35.8393 0.239746 38.6395 0.239746 40.3793 1.97953C41.8713 3.47153 42.0838 5.74334 42.114 9.89225H36.1791C34.9488 9.89225 33.9516 10.8895 33.9516 12.1197C33.9516 13.35 34.9488 14.3472 36.1791 14.3472H42.1191V18.8022H36.1791C34.9488 18.8022 33.9516 19.7995 33.9516 21.0297C33.9516 22.26 34.9488 23.2572 36.1791 23.2572H42.1191ZM21.3291 29.9397C24.6096 29.9397 27.2691 27.1695 27.2691 23.7522C27.2691 21.6141 24.9437 18.7604 23.2028 16.9235C22.1722 15.8362 20.4859 15.8362 19.4553 16.9235C17.7145 18.7604 15.3891 21.6141 15.3891 23.7522C15.3891 27.1695 18.0485 29.9397 21.3291 29.9397Z" fill="#D92D20"/>
</svg>
